<svg width="14" height="14" viewBox="0 0 14 14" fill="none" xmlns="http://www.w3.org/2000/svg">
<path d="M0.333328 12.4335C0.333328 12.3783 0.3781 12.3335 0.433328 12.3335H13.5667C13.6219 12.3335 13.6667 12.3783 13.6667 12.4335V13.5668C13.6667 13.6221 13.6219 13.6668 13.5667 13.6668H0.433329C0.3781 13.6668 0.333328 13.6221 0.333328 13.5668V12.4335ZM1.33333 7.10016C1.33333 7.04493 1.3781 7.00016 1.43333 7.00016H2.56666C2.62189 7.00016 2.66666 7.04493 2.66666 7.10016V11.5668C2.66666 11.6221 2.62189 11.6668 2.56666 11.6668H1.43333C1.3781 11.6668 1.33333 11.6221 1.33333 11.5668V7.10016ZM4.66666 7.10016C4.66666 7.04493 4.71143 7.00016 4.76666 7.00016H5.89999C5.95522 7.00016 6 7.04493 6 7.10016V11.5668C6 11.6221 5.95522 11.6668 5.89999 11.6668H4.76666C4.71143 11.6668 4.66666 11.6221 4.66666 11.5668V7.10016ZM8 7.10016C8 7.04493 8.04477 7.00016 8.1 7.00016H9.23333C9.28856 7.00016 9.33333 7.04493 9.33333 7.10016V11.5668C9.33333 11.6221 9.28856 11.6668 9.23333 11.6668H8.1C8.04477 11.6668 8 11.6221 8 11.5668V7.10016ZM11.3333 7.10016C11.3333 7.04493 11.3781 7.00016 11.4333 7.00016H12.5667C12.6219 7.00016 12.6667 7.04493 12.6667 7.10016V11.5668C12.6667 11.6221 12.6219 11.6668 12.5667 11.6668H11.4333C11.3781 11.6668 11.3333 11.6221 11.3333 11.5668V7.10016ZM0.333328 3.72863C0.333328 3.69076 0.354728 3.65613 0.388607 3.63919L6.95527 0.355857C6.98343 0.34178 7.01656 0.34178 7.04472 0.355857L13.6114 3.63919C13.6453 3.65613 13.6667 3.69076 13.6667 3.72863V6.2335C13.6667 6.28872 13.6219 6.3335 13.5667 6.3335H0.433329C0.3781 6.3335 0.333328 6.28872 0.333328 6.2335V3.72863ZM1.72194 4.46319C1.68806 4.48013 1.66666 4.51476 1.66666 4.55263V4.90016C1.66666 4.95539 1.71143 5.00016 1.76666 5.00016H12.2333C12.2886 5.00016 12.3333 4.95539 12.3333 4.90016V4.55263C12.3333 4.51476 12.3119 4.48013 12.2781 4.46319L7.04472 1.84652C7.01656 1.83245 6.98343 1.83245 6.95527 1.84652L1.72194 4.46319Z" fill="#282828"/>
</svg>
