<svg width="19" height="22" viewBox="0 0 19 22" fill="none" xmlns="http://www.w3.org/2000/svg">
<path d="M9.95391 0C10.613 0 11.2657 0.129329 11.8747 0.380602C12.4836 0.631876 13.0369 1.00017 13.503 1.46447C13.9691 1.92876 14.3388 2.47995 14.591 3.08658C14.8433 3.69321 14.9731 4.34339 14.9731 5V9C14.9731 10.3261 14.4443 11.5979 13.503 12.5355C12.5617 13.4732 11.2851 14 9.95391 14C8.62273 14 7.34607 13.4732 6.40479 12.5355C5.4635 11.5979 4.9347 10.3261 4.9347 9V5C4.9347 3.67392 5.4635 2.40215 6.40479 1.46447C7.34607 0.526784 8.62273 0 9.95391 0ZM0.974541 10H2.99728C3.2405 11.6648 4.07728 13.1867 5.35454 14.2873C6.63179 15.3879 8.26412 15.9936 9.9529 15.9936C11.6417 15.9936 13.274 15.3879 14.5513 14.2873C15.8285 13.1867 16.6653 11.6648 16.9085 10H18.9323C18.704 12.0287 17.7905 13.9199 16.3416 15.3635C14.8926 16.8071 12.9942 17.7174 10.9577 17.945V22H8.95006V17.945C6.9134 17.7176 5.01479 16.8074 3.56563 15.3638C2.11648 13.9202 1.20283 12.0289 0.974541 10Z" fill="#6E6E6E"/>
</svg>
