<svg width="21" height="21" viewBox="0 0 21 21" fill="none" xmlns="http://www.w3.org/2000/svg">
<path d="M10.5 0.25C7.79168 0.282675 5.20349 1.37307 3.28828 3.28828C1.37307 5.20349 0.282675 7.79168 0.25 10.5C0.282675 13.2083 1.37307 15.7965 3.28828 17.7117C5.20349 19.6269 7.79168 20.7173 10.5 20.75C13.2083 20.7173 15.7965 19.6269 17.7117 17.7117C19.6269 15.7965 20.7173 13.2083 20.75 10.5C20.7173 7.79168 19.6269 5.20349 17.7117 3.28828C15.7965 1.37307 13.2083 0.282675 10.5 0.25ZM16.3571 11.2321H11.2321V16.3571H9.76786V11.2321H4.64286V9.76786H9.76786V4.64286H11.2321V9.76786H16.3571V11.2321Z" fill="#97144D"/>
</svg>
